<?xml version="1.0" encoding="iso-8859-1"?>
<!-- Uploaded to: SVG Repo, www.svgrepo.com, Generator: SVG Repo Mixer Tools -->
<svg fill="#000000" height="800px" width="800px" version="1.1" id="Layer_1" xmlns="http://www.w3.org/2000/svg" xmlns:xlink="http://www.w3.org/1999/xlink" 
	 viewBox="0 0 503.974 503.974" xml:space="preserve">
<g>
	<g>
		<path d="M395.257,53.615c-82.768-71.512-205.992-71.487-286.636,0.076C57.455,99.099,32.266,163.099,33.76,243.592
			c-0.176,7.949-3.257,195.374,87.972,250.771c2.677,1.62,6.043,1.612,8.721-0.017c2.669-1.628,4.222-4.625,4.004-7.747
			c-0.579-8.393,0.201-32.609,10.609-43.763c3.777-4.046,8.553-6.01,14.596-6.01h2.484c2.048,1.561,4.062,3.148,6.136,4.642v54.113
			c0,4.633,3.752,8.393,8.393,8.393c4.642,0,8.393-3.76,8.393-8.393v-42.504c0.948,0.638,1.897,1.267,2.845,1.905l7.806,5.246
			c3.181,2.157,6.278,4.449,9.375,6.74c13.438,9.938,27.337,20.22,46.894,20.22c19.548,0,33.448-10.282,46.886-20.22
			c3.097-2.291,6.194-4.583,9.375-6.74l0.781-0.529l7.017-4.709c1.108-0.739,2.208-1.477,3.315-2.216v42.807
			c0,4.633,3.752,8.393,8.393,8.393c4.642,0,8.393-3.76,8.393-8.393v-54.49c1.88-1.377,3.718-2.837,5.582-4.264h2.585
			c6.035,0,10.811,1.964,14.588,6.01c10.408,11.155,11.188,35.37,10.609,43.763c-0.218,3.122,1.335,6.119,4.004,7.747
			c1.343,0.814,2.862,1.225,4.381,1.225c1.502,0,3.005-0.403,4.339-1.209c90.649-55.044,88.181-240.447,87.98-250.603
			C471.671,162.982,445.752,97.236,395.257,53.615z M345.073,412.191c-2.526,2.367-5.196,4.625-7.89,6.849
			c-0.797,0.655-1.57,1.293-2.392,1.956c-5.397,4.306-11.037,8.377-16.728,12.313c-3.03,2.082-6.052,4.163-9.107,6.203
			c-0.906,0.604-1.805,1.217-2.703,1.821l-7.428,5.003c-3.366,2.283-6.648,4.709-9.929,7.134
			c-11.768,8.704-22.897,16.93-36.906,16.93c-14.017,0-25.147-8.226-36.914-16.93c-3.282-2.426-6.564-4.851-9.929-7.134
			l-4.071-2.736l-3.827-2.568c-4.499-3.013-8.981-6.06-13.446-9.149c-4.986-3.475-9.913-7.059-14.638-10.836
			c-0.898-0.722-1.746-1.427-2.594-2.132c-2.619-2.174-5.187-4.373-7.63-6.69c-38.064-36.125-41.245-92.403-41.245-142.319
			c0-35.227,7.176-63.354,11.986-78.235c12.792,10.861,37.552,26.926,72.108,26.926h0.008c3.576,0,6.757-2.266,7.923-5.64
			c1.175-3.374,0.084-7.118-2.719-9.342c-13.018-10.316-31.828-30.124-30.854-39.894c0.067-0.672,0.21-2.065,2.392-3.66
			c16.149,1.914,110.466,17.349,203.994,124.248c0.638,0.73,1.209,1.511,1.695,2.333c1.469,2.468,2.241,5.313,2.208,8.234
			C386.2,318.722,381.693,377.879,345.073,412.191z"/>
	</g>
</g>
</svg>